<?xml version="1.0" encoding="UTF-8" standalone="no"?>
<!-- Created with Inkscape (http://www.inkscape.org/) -->

<svg
   width="32.545815mm"
   height="31.567581mm"
   viewBox="0 0 32.545815 31.567581"
   version="1.1"
   id="svg5"
   xml:space="preserve"
   xmlns:inkscape="http://www.inkscape.org/namespaces/inkscape"
   xmlns:sodipodi="http://sodipodi.sourceforge.net/DTD/sodipodi-0.dtd"
   xmlns="http://www.w3.org/2000/svg"
   xmlns:svg="http://www.w3.org/2000/svg"><sodipodi:namedview
     id="namedview7"
     pagecolor="#ffffff"
     bordercolor="#000000"
     borderopacity="0.25"
     inkscape:showpageshadow="2"
     inkscape:pageopacity="0.0"
     inkscape:pagecheckerboard="0"
     inkscape:deskcolor="#d1d1d1"
     inkscape:document-units="mm"
     showgrid="false"
     inkscape:zoom="2.6745276"
     inkscape:cx="213.30869"
     inkscape:cy="479.89782"
     inkscape:window-width="1626"
     inkscape:window-height="1021"
     inkscape:window-x="234"
     inkscape:window-y="31"
     inkscape:window-maximized="0"
     inkscape:current-layer="layer1" /><defs
     id="defs2" /><g
     inkscape:label="Capa 1"
     inkscape:groupmode="layer"
     id="layer1"
     transform="translate(-89.410563,-146.06137)"><path
       id="path4893"
       style="fill:#000000;stroke-width:0.0442048"
       d="m 97.902551,146.06137 -1.845365,0.0134 -1.845366,0.0134 -0.250113,0.10077 c -0.13743,0.0555 -0.341656,0.17083 -0.454236,0.25683 -0.11257,0.086 -0.282538,0.25435 -0.377238,0.37414 -0.09469,0.11979 -0.216818,0.33247 -0.271818,0.47232 l -0.100253,0.25425 -0.01809,0.9834 -0.01757,0.98392 h 0.922941 0.923458 l 0.252697,0.0656 c 0.139,0.0362 0.3668,0.1236 0.506429,0.1943 0.13963,0.0706 0.347291,0.21088 0.461471,0.31161 0.11419,0.10073 0.28899,0.30682 0.38809,0.45786 l 0.179834,0.2744 0.0925,0.28732 0.09198,0.28732 v 0.37569 0.37568 l -0.0925,0.29043 -0.0925,0.29093 -0.169499,0.262 c -0.09323,0.14412 -0.26935,0.35152 -0.39119,0.46096 -0.12185,0.10944 -0.329214,0.25274 -0.460954,0.31884 -0.13174,0.0661 -0.357902,0.1509 -0.502812,0.1881 l -0.263549,0.0677 H 94.01441 c -0.30488,1e-4 -0.718228,0.0133 -0.918807,0.0289 l -0.364836,0.0284 v 1.09347 1.09399 l 0.983402,0.0186 0.98392,0.0181 0.318843,0.11421 0.318844,0.1142 0.287838,0.20516 0.287321,0.20516 0.192753,0.27491 c 0.10601,0.15124 0.234787,0.37552 0.286287,0.49868 0.05149,0.12316 0.112492,0.342 0.135392,0.48628 0.02283,0.14428 0.0325,0.36212 0.0217,0.48369 -0.01079,0.12156 -0.05737,0.351 -0.103869,0.51004 l -0.08475,0.28888 -0.170532,0.26355 c -0.09397,0.14487 -0.252987,0.33758 -0.353467,0.42788 -0.100489,0.0903 -0.263001,0.21425 -0.360701,0.27595 -0.09769,0.0617 -0.325429,0.16192 -0.506429,0.22272 l -0.329179,0.11059 h -0.655257 c -0.3604,2e-4 -0.78932,0.0134 -0.95343,0.0289 l -0.29869,0.0279 v 1.09864 1.09864 l 0.895036,10e-4 0.895552,5.2e-4 0.283187,0.0667 c 0.15577,0.0367 0.40137,0.13002 0.54622,0.20722 0.14486,0.0772 0.361281,0.2281 0.480591,0.33538 l 0.217041,0.19534 0.172599,0.29301 c 0.09497,0.16136 0.207197,0.41275 0.249597,0.55862 l 0.077,0.26561 -0.0026,0.35347 -0.0031,0.35347 -0.09198,0.28732 -0.09198,0.28732 -0.179834,0.2744 -0.179834,0.27389 -0.273885,0.21704 c -0.15083,0.11945 -0.34143,0.25172 -0.42323,0.29352 -0.08178,0.0418 -0.230686,0.10786 -0.331246,0.14676 l -0.182935,0.0708 -1.016992,0.0248 -1.016475,0.0253 v 1.10226 1.10226 l 0.953946,0.01 0.953947,0.0103 0.189653,0.0512 c 0.10446,0.0281 0.300846,0.10365 0.436666,0.16795 l 0.247013,0.11731 0.302824,0.28525 0.302307,0.28526 0.173116,0.3576 0.173116,0.3576 0.04238,0.29765 0.04186,0.29818 -0.03927,0.27698 c -0.0216,0.15245 -0.07042,0.36577 -0.108521,0.47388 -0.03814,0.10811 -0.121301,0.28562 -0.185001,0.39429 -0.06368,0.10867 -0.19754,0.28648 -0.29714,0.39532 -0.09964,0.10884 -0.298747,0.27434 -0.442867,0.36794 l -0.262516,0.17053 -0.290422,0.094 -0.290421,0.0946 -0.961182,0.0202 -0.961698,0.0207 v 0.76016 0.76068 l 0.04806,0.26252 c 0.02658,0.14426 0.09546,0.3616 0.152962,0.48317 0.0575,0.12156 0.191733,0.31331 0.298173,0.42581 0.10644,0.11251 0.275154,0.25812 0.374654,0.32402 0.09952,0.0659 0.296716,0.15685 0.438216,0.20205 l -5.16e-4,5.2e-4 0.257348,0.0822 1.801441,0.002 1.800923,0.002 v -15.78354 z m 0.884701,0.004 v 15.78198 15.78198 l 9.780278,-0.0114 9.78028,-0.0119 0.30955,-0.14573 0.30954,-0.14625 0.19017,-0.18551 c 0.10456,-0.10202 0.24666,-0.27507 0.31626,-0.38448 0.0696,-0.10941 0.16304,-0.30811 0.20774,-0.44183 l 0.0816,-0.2434 0.0114,-8.49302 0.0119,-8.49302 0.13746,-0.0274 c 0.0756,-0.0151 0.41829,-0.0274 0.76171,-0.0274 h 0.62425 l 0.15193,-0.0775 c 0.0834,-0.0425 0.21047,-0.15093 0.28267,-0.24133 l 0.13126,-0.16433 0.0403,-0.47697 0.0408,-0.47646 -0.0139,-1.23765 -0.0145,-1.23765 -0.0946,-0.17674 c -0.0522,-0.0972 -0.14207,-0.2209 -0.19947,-0.2744 -0.0574,-0.0536 -0.1781,-0.12828 -0.2682,-0.16588 l -0.16382,-0.0682 h -0.70848 -0.709 l -5.2e-4,-3.21583 -0.001,-3.21582 -0.0429,-0.29611 -0.0429,-0.2961 -0.10904,-0.24702 -0.10904,-0.24701 -0.24598,-0.25735 -0.24598,-0.25786 -0.31936,-0.14986 -0.31988,-0.14987 -9.78028,-0.0114 z m -7.934916,4.33358 -0.287321,0.0465 -0.287321,0.0465 -0.183452,0.10697 c -0.10077,0.0589 -0.238207,0.17216 -0.305407,0.25166 -0.06723,0.0795 -0.170877,0.25069 -0.230477,0.38034 l -0.108521,0.23565 v 0.32142 0.32143 l 0.0956,0.21653 0.0956,0.216 0.163298,0.1695 c 0.08997,0.0932 0.243247,0.21077 0.340547,0.26097 0.09725,0.0502 0.226521,0.10699 0.287321,0.12609 l 0.110588,0.0346 2.055171,-0.008 2.055689,-0.008 0.256832,-0.12609 0.256832,-0.12609 0.170015,-0.21549 c 0.09359,-0.1184 0.204497,-0.30509 0.246497,-0.41496 l 0.07596,-0.19999 -0.02067,-0.32504 -0.02067,-0.32557 -0.101286,-0.20877 c -0.05552,-0.1147 -0.170182,-0.27603 -0.255281,-0.35863 -0.08505,-0.0826 -0.239492,-0.19113 -0.343132,-0.24133 -0.10364,-0.0502 -0.305455,-0.11054 -0.448035,-0.13384 l -0.258899,-0.0424 h -1.68 z m 18.291394,0.23616 0.50126,0.0941 0.50074,0.0941 0.47853,0.44648 0.47852,0.44648 3.49798,9.34052 3.49849,9.34051 v 0.53899 0.53898 l -0.31781,0.47181 c -0.175,0.25968 -0.53097,0.61566 -0.79065,0.79065 l -0.4718,0.31781 h -0.54364 c -0.29894,0 -0.74608,-0.0862 -0.99374,-0.19172 -0.24766,-0.10553 -0.58767,-0.34142 -0.75551,-0.52452 l -0.30541,-0.33331 -0.62321,-1.67897 -0.62374,-1.67896 -3.50314,-0.0377 -3.50315,-0.0372 -0.2775,0.7369 c -0.15252,0.40537 -0.44341,1.17639 -0.64647,1.71359 -0.20305,0.5372 -0.50805,1.12591 -0.678,1.30793 -0.16996,0.18202 -0.47896,0.41949 -0.68678,0.52762 l -0.37827,0.19637 h -0.61598 -0.61547 l -0.46302,-0.31471 c -0.25443,-0.17316 -0.58513,-0.48083 -0.73535,-0.68368 l -0.27337,-0.36897 -0.0641,-0.6103 -0.0646,-0.61081 3.48868,-9.30538 3.48867,-9.30589 0.47491,-0.5116 0.47439,-0.51211 0.52452,-0.0982 z m -17.098186,6.54224 c -0.384582,-10e-4 -0.717468,0.002 -0.905887,0.009 l -0.68523,0.0264 -0.223759,0.10077 c -0.12312,0.0556 -0.278282,0.15581 -0.344682,0.22221 -0.06645,0.0664 -0.169193,0.19325 -0.227893,0.28215 -0.0587,0.0889 -0.138033,0.28562 -0.176733,0.43718 l -0.0708,0.27596 0.04496,0.24184 c 0.0246,0.13309 0.08302,0.3176 0.130224,0.40979 0.04714,0.0922 0.171779,0.25206 0.276469,0.35554 l 0.190169,0.1881 0.223243,0.0858 v 10e-4 l 0.222725,0.0858 1.995227,0.002 1.995227,0.002 0.221175,-0.0718 0.221175,-0.0713 0.213941,-0.16175 0.214457,-0.16226 0.133325,-0.26097 0.133325,-0.26096 v -0.37879 -0.37827 l -0.100252,-0.20361 c -0.0551,-0.11183 -0.172149,-0.2755 -0.260449,-0.3638 -0.08835,-0.0883 -0.252489,-0.20587 -0.364319,-0.26097 l -0.203088,-0.10025 -1.436605,-0.0341 c -0.39508,-0.009 -0.831364,-0.0151 -1.215947,-0.0165 z m 17.114716,2.30684 c -0.0474,9.8e-4 -0.47222,1.03998 -0.94361,2.3089 l -0.85679,2.30683 h 1.79782 1.79834 l -0.42995,-1.15445 c -0.23647,-0.63494 -0.62108,-1.67396 -0.85473,-2.3089 -0.23365,-0.63494 -0.46363,-1.15335 -0.51108,-1.15238 z m -17.822683,4.42763 -0.487308,0.045 -0.487309,0.045 -0.177767,0.0904 c -0.09765,0.0498 -0.26301,0.18336 -0.36742,0.29663 -0.104399,0.11326 -0.228885,0.29478 -0.276985,0.40359 l -0.08785,0.19792 -0.001,0.32298 -0.001,0.32297 0.117305,0.24753 0.116789,0.24702 0.215491,0.19378 0.214974,0.19327 0.213423,0.0724 0.213424,0.0734 2.033468,-0.0103 2.033467,-0.01 0.246497,-0.11576 0.247013,-0.11575 0.156063,-0.15606 c 0.08563,-0.0856 0.202766,-0.25189 0.260966,-0.37001 l 0.105937,-0.21497 v -0.37569 -0.37569 l -0.105937,-0.21497 c -0.05815,-0.11812 -0.170081,-0.27912 -0.24908,-0.35812 -0.07902,-0.079 -0.240515,-0.1916 -0.358635,-0.2496 l -0.214457,-0.10542 -1.680001,-0.0398 z m -0.927075,6.79855 -0.221175,0.11783 c -0.12157,0.0647 -0.284235,0.1839 -0.361735,0.2651 -0.07754,0.0812 -0.191731,0.25695 -0.253731,0.39067 l -0.112655,0.2434 5.17e-4,0.33124 5.17e-4,0.33176 0.08527,0.18811 c 0.04697,0.10349 0.138071,0.25698 0.202571,0.34158 0.0645,0.0846 0.187669,0.19711 0.273369,0.25011 0.08559,0.0529 0.227298,0.12202 0.315226,0.15348 h 5.17e-4 l 0.15968,0.0568 1.992126,0.002 1.992127,0.002 0.218074,-0.0656 0.218075,-0.0656 0.220141,-0.16743 0.220142,-0.16795 0.133325,-0.26097 0.133842,-0.26044 -10e-4,-0.35709 -0.001,-0.35657 -0.103353,-0.23099 -0.103353,-0.23099 -0.185518,-0.17105 -0.185518,-0.17105 -0.218592,-0.0842 -0.218074,-0.0842 h -2.10013 z" /></g></svg>
